<svg width="443" height="206" viewBox="0 0 443 206" fill="none" xmlns="http://www.w3.org/2000/svg">
<rect width="443" height="206" fill="#F8917E"/>
<path d="M63.7539 59.4453C63.582 61.2656 62.9102 62.6875 61.7383 63.7109C60.5664 64.7266 59.0078 65.2344 57.0625 65.2344C55.7031 65.2344 54.5039 64.9141 53.4648 64.2734C52.4336 63.625 51.6367 62.707 51.0742 61.5195C50.5117 60.332 50.2188 58.9531 50.1953 57.3828V55.7891C50.1953 54.1797 50.4805 52.7617 51.0508 51.5352C51.6211 50.3086 52.4375 49.3633 53.5 48.6992C54.5703 48.0352 55.8047 47.7031 57.2031 47.7031C59.0859 47.7031 60.6016 48.2148 61.75 49.2383C62.8984 50.2617 63.5664 51.707 63.7539 53.5742H60.8008C60.6602 52.3477 60.3008 51.4648 59.7227 50.9258C59.1523 50.3789 58.3125 50.1055 57.2031 50.1055C55.9141 50.1055 54.9219 50.5781 54.2266 51.5234C53.5391 52.4609 53.1875 53.8398 53.1719 55.6602V57.1719C53.1719 59.0156 53.5 60.4219 54.1562 61.3906C54.8203 62.3594 55.7891 62.8438 57.0625 62.8438C58.2266 62.8438 59.1016 62.582 59.6875 62.0586C60.2734 61.5352 60.6445 60.6641 60.8008 59.4453H63.7539ZM73.7148 65C73.5898 64.7578 73.4805 64.3633 73.3867 63.8164C72.4805 64.7617 71.3711 65.2344 70.0586 65.2344C68.7852 65.2344 67.7461 64.8711 66.9414 64.1445C66.1367 63.418 65.7344 62.5195 65.7344 61.4492C65.7344 60.0977 66.2344 59.0625 67.2344 58.3438C68.2422 57.6172 69.6797 57.2539 71.5469 57.2539H73.293V56.4219C73.293 55.7656 73.1094 55.2422 72.7422 54.8516C72.375 54.4531 71.8164 54.2539 71.0664 54.2539C70.418 54.2539 69.8867 54.418 69.4727 54.7461C69.0586 55.0664 68.8516 55.4766 68.8516 55.9766H66.0039C66.0039 55.2812 66.2344 54.6328 66.6953 54.0312C67.1562 53.4219 67.7812 52.9453 68.5703 52.6016C69.3672 52.2578 70.2539 52.0859 71.2305 52.0859C72.7148 52.0859 73.8984 52.4609 74.7812 53.2109C75.6641 53.9531 76.1172 55 76.1406 56.3516V62.0703C76.1406 63.2109 76.3008 64.1211 76.6211 64.8008V65H73.7148ZM70.5859 62.9492C71.1484 62.9492 71.6758 62.8125 72.168 62.5391C72.668 62.2656 73.043 61.8984 73.293 61.4375V59.0469H71.7578C70.7031 59.0469 69.9102 59.2305 69.3789 59.5977C68.8477 59.9648 68.582 60.4844 68.582 61.1562C68.582 61.7031 68.7617 62.1406 69.1211 62.4688C69.4883 62.7891 69.9766 62.9492 70.5859 62.9492ZM86.2305 61.5547C86.2305 61.0469 86.0195 60.6602 85.5977 60.3945C85.1836 60.1289 84.4922 59.8945 83.5234 59.6914C82.5547 59.4883 81.7461 59.2305 81.0977 58.918C79.6758 58.2305 78.9648 57.2344 78.9648 55.9297C78.9648 54.8359 79.4258 53.9219 80.3477 53.1875C81.2695 52.4531 82.4414 52.0859 83.8633 52.0859C85.3789 52.0859 86.6016 52.4609 87.5312 53.2109C88.4688 53.9609 88.9375 54.9336 88.9375 56.1289H86.0898C86.0898 55.582 85.8867 55.1289 85.4805 54.7695C85.0742 54.4023 84.5352 54.2188 83.8633 54.2188C83.2383 54.2188 82.7266 54.3633 82.3281 54.6523C81.9375 54.9414 81.7422 55.3281 81.7422 55.8125C81.7422 56.25 81.9258 56.5898 82.293 56.832C82.6602 57.0742 83.4023 57.3203 84.5195 57.5703C85.6367 57.8125 86.5117 58.1055 87.1445 58.4492C87.7852 58.7852 88.2578 59.1914 88.5625 59.668C88.875 60.1445 89.0312 60.7227 89.0312 61.4023C89.0312 62.543 88.5586 63.4688 87.6133 64.1797C86.668 64.8828 85.4297 65.2344 83.8984 65.2344C82.8594 65.2344 81.9336 65.0469 81.1211 64.6719C80.3086 64.2969 79.6758 63.7812 79.2227 63.125C78.7695 62.4688 78.543 61.7617 78.543 61.0039H81.3086C81.3477 61.6758 81.6016 62.1953 82.0703 62.5625C82.5391 62.9219 83.1602 63.1016 83.9336 63.1016C84.6836 63.1016 85.2539 62.9609 85.6445 62.6797C86.0352 62.3906 86.2305 62.0156 86.2305 61.5547ZM94.3281 53.7031C95.2578 52.625 96.4336 52.0859 97.8555 52.0859C100.559 52.0859 101.93 53.6289 101.969 56.7148V65H99.1211V56.8203C99.1211 55.9453 98.9297 55.3281 98.5469 54.9688C98.1719 54.6016 97.6172 54.418 96.8828 54.418C95.7422 54.418 94.8906 54.9258 94.3281 55.9414V65H91.4805V47H94.3281V53.7031ZM110.301 58.543C110.301 57.3008 110.547 56.1836 111.039 55.1914C111.531 54.1914 112.223 53.4258 113.113 52.8945C114.004 52.3555 115.027 52.0859 116.184 52.0859C117.895 52.0859 119.281 52.6367 120.344 53.7383C121.414 54.8398 121.992 56.3008 122.078 58.1211L122.09 58.7891C122.09 60.0391 121.848 61.1562 121.363 62.1406C120.887 63.125 120.199 63.8867 119.301 64.4258C118.41 64.9648 117.379 65.2344 116.207 65.2344C114.418 65.2344 112.984 64.6406 111.906 63.4531C110.836 62.2578 110.301 60.668 110.301 58.6836V58.543ZM113.148 58.7891C113.148 60.0938 113.418 61.1172 113.957 61.8594C114.496 62.5938 115.246 62.9609 116.207 62.9609C117.168 62.9609 117.914 62.5859 118.445 61.8359C118.984 61.0859 119.254 59.9883 119.254 58.543C119.254 57.2617 118.977 56.2461 118.422 55.4961C117.875 54.7461 117.129 54.3711 116.184 54.3711C115.254 54.3711 114.516 54.7422 113.969 55.4844C113.422 56.2188 113.148 57.3203 113.148 58.7891ZM127.141 52.3203L127.223 53.7852C128.16 52.6523 129.391 52.0859 130.914 52.0859C133.555 52.0859 134.898 53.5977 134.945 56.6211V65H132.098V56.7852C132.098 55.9805 131.922 55.3867 131.57 55.0039C131.227 54.6133 130.66 54.418 129.871 54.418C128.723 54.418 127.867 54.9375 127.305 55.9766V65H124.457V52.3203H127.141ZM150.086 65V47.9375H155.125C156.633 47.9375 157.969 48.2734 159.133 48.9453C160.305 49.6172 161.211 50.5703 161.852 51.8047C162.492 53.0391 162.812 54.4531 162.812 56.0469V56.9023C162.812 58.5195 162.488 59.9414 161.84 61.168C161.199 62.3945 160.281 63.3398 159.086 64.0039C157.898 64.668 156.535 65 154.996 65H150.086ZM153.051 50.3281V62.6328H154.984C156.539 62.6328 157.73 62.1484 158.559 61.1797C159.395 60.2031 159.82 58.8047 159.836 56.9844V56.0352C159.836 54.1836 159.434 52.7695 158.629 51.793C157.824 50.8164 156.656 50.3281 155.125 50.3281H153.051ZM171.074 65.2344C169.27 65.2344 167.805 64.668 166.68 63.5352C165.562 62.3945 165.004 60.8789 165.004 58.9883V58.6367C165.004 57.3711 165.246 56.2422 165.73 55.25C166.223 54.25 166.91 53.4727 167.793 52.918C168.676 52.3633 169.66 52.0859 170.746 52.0859C172.473 52.0859 173.805 52.6367 174.742 53.7383C175.688 54.8398 176.16 56.3984 176.16 58.4141V59.5625H167.875C167.961 60.6094 168.309 61.4375 168.918 62.0469C169.535 62.6562 170.309 62.9609 171.238 62.9609C172.543 62.9609 173.605 62.4336 174.426 61.3789L175.961 62.8438C175.453 63.6016 174.773 64.1914 173.922 64.6133C173.078 65.0273 172.129 65.2344 171.074 65.2344ZM170.734 54.3711C169.953 54.3711 169.32 54.6445 168.836 55.1914C168.359 55.7383 168.055 56.5 167.922 57.4766H173.348V57.2656C173.285 56.3125 173.031 55.5938 172.586 55.1094C172.141 54.6172 171.523 54.3711 170.734 54.3711ZM181.41 65H178.562V47H181.41V65ZM187.551 65H184.703V52.3203H187.551V65ZM184.527 49.0273C184.527 48.5898 184.664 48.2266 184.938 47.9375C185.219 47.6484 185.617 47.5039 186.133 47.5039C186.648 47.5039 187.047 47.6484 187.328 47.9375C187.609 48.2266 187.75 48.5898 187.75 49.0273C187.75 49.457 187.609 49.8164 187.328 50.1055C187.047 50.3867 186.648 50.5273 186.133 50.5273C185.617 50.5273 185.219 50.3867 184.938 50.1055C184.664 49.8164 184.527 49.457 184.527 49.0273ZM195.133 61.3906L197.816 52.3203H200.758L196.363 65H193.891L189.461 52.3203H192.414L195.133 61.3906ZM207.965 65.2344C206.16 65.2344 204.695 64.668 203.57 63.5352C202.453 62.3945 201.895 60.8789 201.895 58.9883V58.6367C201.895 57.3711 202.137 56.2422 202.621 55.25C203.113 54.25 203.801 53.4727 204.684 52.918C205.566 52.3633 206.551 52.0859 207.637 52.0859C209.363 52.0859 210.695 52.6367 211.633 53.7383C212.578 54.8398 213.051 56.3984 213.051 58.4141V59.5625H204.766C204.852 60.6094 205.199 61.4375 205.809 62.0469C206.426 62.6562 207.199 62.9609 208.129 62.9609C209.434 62.9609 210.496 62.4336 211.316 61.3789L212.852 62.8438C212.344 63.6016 211.664 64.1914 210.812 64.6133C209.969 65.0273 209.02 65.2344 207.965 65.2344ZM207.625 54.3711C206.844 54.3711 206.211 54.6445 205.727 55.1914C205.25 55.7383 204.945 56.5 204.812 57.4766H210.238V57.2656C210.176 56.3125 209.922 55.5938 209.477 55.1094C209.031 54.6172 208.414 54.3711 207.625 54.3711ZM221.91 54.9219C221.535 54.8594 221.148 54.8281 220.75 54.8281C219.445 54.8281 218.566 55.3281 218.113 56.3281V65H215.266V52.3203H217.984L218.055 53.7383C218.742 52.6367 219.695 52.0859 220.914 52.0859C221.32 52.0859 221.656 52.1406 221.922 52.25L221.91 54.9219ZM228.355 60.9219L230.934 52.3203H233.969L228.93 66.9219C228.156 69.0547 226.844 70.1211 224.992 70.1211C224.578 70.1211 224.121 70.0508 223.621 69.9102V67.707L224.16 67.7422C224.879 67.7422 225.418 67.6094 225.777 67.3438C226.145 67.0859 226.434 66.6484 226.645 66.0312L227.055 64.9414L222.602 52.3203H225.672L228.355 60.9219ZM244.832 58.6602V65H241.867V47.9375H248.395C250.301 47.9375 251.812 48.4336 252.93 49.4258C254.055 50.418 254.617 51.7305 254.617 53.3633C254.617 55.0352 254.066 56.3359 252.965 57.2656C251.871 58.1953 250.336 58.6602 248.359 58.6602H244.832ZM244.832 56.2812H248.395C249.449 56.2812 250.254 56.0352 250.809 55.543C251.363 55.043 251.641 54.3242 251.641 53.3867C251.641 52.4648 251.359 51.7305 250.797 51.1836C250.234 50.6289 249.461 50.3438 248.477 50.3281H244.832V56.2812ZM264.379 65C264.254 64.7578 264.145 64.3633 264.051 63.8164C263.145 64.7617 262.035 65.2344 260.723 65.2344C259.449 65.2344 258.41 64.8711 257.605 64.1445C256.801 63.418 256.398 62.5195 256.398 61.4492C256.398 60.0977 256.898 59.0625 257.898 58.3438C258.906 57.6172 260.344 57.2539 262.211 57.2539H263.957V56.4219C263.957 55.7656 263.773 55.2422 263.406 54.8516C263.039 54.4531 262.48 54.2539 261.73 54.2539C261.082 54.2539 260.551 54.418 260.137 54.7461C259.723 55.0664 259.516 55.4766 259.516 55.9766H256.668C256.668 55.2812 256.898 54.6328 257.359 54.0312C257.82 53.4219 258.445 52.9453 259.234 52.6016C260.031 52.2578 260.918 52.0859 261.895 52.0859C263.379 52.0859 264.562 52.4609 265.445 53.2109C266.328 53.9531 266.781 55 266.805 56.3516V62.0703C266.805 63.2109 266.965 64.1211 267.285 64.8008V65H264.379ZM261.25 62.9492C261.812 62.9492 262.34 62.8125 262.832 62.5391C263.332 62.2656 263.707 61.8984 263.957 61.4375V59.0469H262.422C261.367 59.0469 260.574 59.2305 260.043 59.5977C259.512 59.9648 259.246 60.4844 259.246 61.1562C259.246 61.7031 259.426 62.1406 259.785 62.4688C260.152 62.7891 260.641 62.9492 261.25 62.9492ZM274.035 60.9219L276.613 52.3203H279.648L274.609 66.9219C273.836 69.0547 272.523 70.1211 270.672 70.1211C270.258 70.1211 269.801 70.0508 269.301 69.9102V67.707L269.84 67.7422C270.559 67.7422 271.098 67.6094 271.457 67.3438C271.824 67.0859 272.113 66.6484 272.324 66.0312L272.734 64.9414L268.281 52.3203H271.352L274.035 60.9219ZM283.973 52.3203L284.055 53.6445C284.945 52.6055 286.164 52.0859 287.711 52.0859C289.406 52.0859 290.566 52.7344 291.191 54.0312C292.113 52.7344 293.41 52.0859 295.082 52.0859C296.48 52.0859 297.52 52.4727 298.199 53.2461C298.887 54.0195 299.238 55.1602 299.254 56.668V65H296.406V56.75C296.406 55.9453 296.23 55.3555 295.879 54.9805C295.527 54.6055 294.945 54.418 294.133 54.418C293.484 54.418 292.953 54.5938 292.539 54.9453C292.133 55.2891 291.848 55.7422 291.684 56.3047L291.695 65H288.848V56.6562C288.809 55.1641 288.047 54.418 286.562 54.418C285.422 54.418 284.613 54.8828 284.137 55.8125V65H281.289V52.3203H283.973ZM307.762 65.2344C305.957 65.2344 304.492 64.668 303.367 63.5352C302.25 62.3945 301.691 60.8789 301.691 58.9883V58.6367C301.691 57.3711 301.934 56.2422 302.418 55.25C302.91 54.25 303.598 53.4727 304.48 52.918C305.363 52.3633 306.348 52.0859 307.434 52.0859C309.16 52.0859 310.492 52.6367 311.43 53.7383C312.375 54.8398 312.848 56.3984 312.848 58.4141V59.5625H304.562C304.648 60.6094 304.996 61.4375 305.605 62.0469C306.223 62.6562 306.996 62.9609 307.926 62.9609C309.23 62.9609 310.293 62.4336 311.113 61.3789L312.648 62.8438C312.141 63.6016 311.461 64.1914 310.609 64.6133C309.766 65.0273 308.816 65.2344 307.762 65.2344ZM307.422 54.3711C306.641 54.3711 306.008 54.6445 305.523 55.1914C305.047 55.7383 304.742 56.5 304.609 57.4766H310.035V57.2656C309.973 56.3125 309.719 55.5938 309.273 55.1094C308.828 54.6172 308.211 54.3711 307.422 54.3711ZM317.711 52.3203L317.793 53.7852C318.73 52.6523 319.961 52.0859 321.484 52.0859C324.125 52.0859 325.469 53.5977 325.516 56.6211V65H322.668V56.7852C322.668 55.9805 322.492 55.3867 322.141 55.0039C321.797 54.6133 321.23 54.418 320.441 54.418C319.293 54.418 318.438 54.9375 317.875 55.9766V65H315.027V52.3203H317.711ZM331.996 49.2383V52.3203H334.234V54.4297H331.996V61.5078C331.996 61.9922 332.09 62.3438 332.277 62.5625C332.473 62.7734 332.816 62.8789 333.309 62.8789C333.637 62.8789 333.969 62.8398 334.305 62.7617V64.9648C333.656 65.1445 333.031 65.2344 332.43 65.2344C330.242 65.2344 329.148 64.0273 329.148 61.6133V54.4297H327.062V52.3203H329.148V49.2383H331.996Z" fill="white"/>
<path d="M56.7124 86.1182C56.6066 87.0915 56.2575 87.8363 55.665 88.3525C55.0768 88.8688 54.2918 89.127 53.3101 89.127C52.6245 89.127 52.0173 88.9556 51.4883 88.6128C50.9635 88.27 50.5573 87.7855 50.2695 87.1592C49.9818 86.5286 49.8358 85.8092 49.8315 85.001V83.8013C49.8315 82.9803 49.9754 82.2524 50.2632 81.6177C50.5509 80.9829 50.9635 80.4941 51.501 80.1514C52.0426 79.8044 52.6647 79.6309 53.3672 79.6309C54.3574 79.6309 55.1382 79.8996 55.7095 80.437C56.285 80.9702 56.6193 81.7087 56.7124 82.6523H55.9253C55.7306 81.0824 54.8779 80.2974 53.3672 80.2974C52.5293 80.2974 51.8607 80.6105 51.3613 81.2368C50.8662 81.8631 50.6187 82.7285 50.6187 83.833V84.9629C50.6187 86.0293 50.8599 86.8799 51.3423 87.5146C51.8289 88.1494 52.4849 88.4668 53.3101 88.4668C54.1268 88.4668 54.7425 88.2721 55.1572 87.8828C55.5719 87.4893 55.828 86.901 55.9253 86.1182H56.7124ZM62.8506 88.1304C62.3936 88.7948 61.6636 89.127 60.6606 89.127C59.9285 89.127 59.3721 88.9154 58.9912 88.4922C58.6104 88.0648 58.4157 87.4342 58.4072 86.6006V82.1318H59.1626V86.5054C59.1626 87.813 59.6916 88.4668 60.7495 88.4668C61.8498 88.4668 62.5459 88.0119 62.8379 87.1021V82.1318H63.5996V89H62.8633L62.8506 88.1304ZM68.7539 82.7793C68.5931 82.7497 68.4217 82.7349 68.2397 82.7349C67.7658 82.7349 67.3638 82.8682 67.0337 83.1348C66.7078 83.3971 66.4751 83.7801 66.3354 84.2837V89H65.5801V82.1318H66.3228L66.3354 83.2236C66.7375 82.4111 67.3828 82.0049 68.2715 82.0049C68.4831 82.0049 68.6502 82.0324 68.7729 82.0874L68.7539 82.7793ZM73.1338 82.7793C72.973 82.7497 72.8016 82.7349 72.6196 82.7349C72.1457 82.7349 71.7437 82.8682 71.4136 83.1348C71.0877 83.3971 70.855 83.7801 70.7153 84.2837V89H69.96V82.1318H70.7026L70.7153 83.2236C71.1174 82.4111 71.7627 82.0049 72.6514 82.0049C72.863 82.0049 73.0301 82.0324 73.1528 82.0874L73.1338 82.7793ZM76.8726 89.127C76.2886 89.127 75.7596 88.9831 75.2856 88.6953C74.8159 88.4076 74.4499 88.0076 74.1875 87.4956C73.9251 86.9793 73.7939 86.4017 73.7939 85.7627V85.4897C73.7939 84.8296 73.9209 84.235 74.1748 83.7061C74.4329 83.1771 74.7905 82.7624 75.2476 82.4619C75.7046 82.1572 76.1997 82.0049 76.7329 82.0049C77.5666 82.0049 78.2267 82.2905 78.7134 82.8618C79.2043 83.4289 79.4497 84.2054 79.4497 85.1914V85.6167H74.5493V85.7627C74.5493 86.5413 74.7715 87.1909 75.2158 87.7114C75.6644 88.2277 76.2272 88.4858 76.9043 88.4858C77.3105 88.4858 77.6681 88.4118 77.9771 88.2637C78.2902 88.1156 78.5737 87.8786 78.8276 87.5527L79.3037 87.9146C78.7451 88.7228 77.9347 89.127 76.8726 89.127ZM76.7329 82.6523C76.1616 82.6523 75.6792 82.8618 75.2856 83.2808C74.8963 83.6997 74.6593 84.2625 74.5747 84.9692H78.6943V84.8867C78.6732 84.2266 78.4849 83.6891 78.1294 83.2744C77.7739 82.8597 77.3084 82.6523 76.7329 82.6523ZM81.6523 82.1318L81.6777 83.3062C81.9359 82.883 82.2575 82.5614 82.6426 82.3413C83.0277 82.117 83.453 82.0049 83.9185 82.0049C84.6548 82.0049 85.2028 82.2122 85.5625 82.627C85.9222 83.0417 86.1042 83.6637 86.1084 84.4932V89H85.353V84.4868C85.3488 83.8732 85.2176 83.4162 84.9595 83.1157C84.7056 82.8153 84.2972 82.665 83.7344 82.665C83.2646 82.665 82.8478 82.8132 82.4839 83.1094C82.1242 83.4014 81.8576 83.797 81.6841 84.2964V89H80.9287V82.1318H81.6523ZM89.2568 80.3735V82.1318H90.6787V82.7539H89.2568V87.3306C89.2568 87.7114 89.3245 87.995 89.46 88.1812C89.5996 88.3674 89.8302 88.4604 90.1519 88.4604C90.2788 88.4604 90.484 88.4393 90.7676 88.397L90.7993 89.019C90.6004 89.091 90.3296 89.127 89.9868 89.127C89.4663 89.127 89.0876 88.9767 88.8506 88.6763C88.6136 88.3716 88.4951 87.9251 88.4951 87.3369V82.7539H87.2319V82.1318H88.4951V80.3735H89.2568ZM93.1035 89H92.3418V79.25H93.1035V89ZM97.3501 87.9082L99.356 82.1318H100.175L97.2422 90.168L97.0898 90.5234C96.7132 91.3571 96.1313 91.7739 95.3442 91.7739C95.1623 91.7739 94.9676 91.7443 94.7603 91.6851L94.7539 91.0566L95.1475 91.0947C95.5199 91.0947 95.8203 91.0016 96.0488 90.8154C96.2816 90.6335 96.4784 90.3182 96.6392 89.8696L96.9756 88.9429L94.3857 82.1318H95.2173L97.3501 87.9082ZM106.161 87.4194L106.275 88.0098L106.427 87.3877L108.078 82.1318H108.725L110.356 87.3433L110.534 88.0669L110.68 87.4004L112.089 82.1318H112.876L110.877 89H110.229L108.465 83.5537L108.382 83.1792L108.3 83.5601L106.567 89H105.919L103.926 82.1318H104.707L106.161 87.4194ZM116.977 89.127C116.393 89.127 115.864 88.9831 115.39 88.6953C114.92 88.4076 114.554 88.0076 114.292 87.4956C114.03 86.9793 113.898 86.4017 113.898 85.7627V85.4897C113.898 84.8296 114.025 84.235 114.279 83.7061C114.537 83.1771 114.895 82.7624 115.352 82.4619C115.809 82.1572 116.304 82.0049 116.837 82.0049C117.671 82.0049 118.331 82.2905 118.818 82.8618C119.309 83.4289 119.554 84.2054 119.554 85.1914V85.6167H114.654V85.7627C114.654 86.5413 114.876 87.1909 115.32 87.7114C115.769 88.2277 116.332 88.4858 117.009 88.4858C117.415 88.4858 117.773 88.4118 118.082 88.2637C118.395 88.1156 118.678 87.8786 118.932 87.5527L119.408 87.9146C118.85 88.7228 118.039 89.127 116.977 89.127ZM116.837 82.6523C116.266 82.6523 115.784 82.8618 115.39 83.2808C115.001 83.6997 114.764 84.2625 114.679 84.9692H118.799V84.8867C118.778 84.2266 118.589 83.6891 118.234 83.2744C117.878 82.8597 117.413 82.6523 116.837 82.6523ZM123.89 85.5024C123.89 84.436 124.127 83.5876 124.601 82.957C125.079 82.3223 125.726 82.0049 126.543 82.0049C127.47 82.0049 128.176 82.3709 128.663 83.103V79.25H129.418V89H128.708L128.676 88.0859C128.189 88.7799 127.474 89.127 126.53 89.127C125.739 89.127 125.1 88.8096 124.613 88.1748C124.131 87.5358 123.89 86.6746 123.89 85.5913V85.5024ZM124.658 85.6357C124.658 86.5117 124.833 87.2036 125.185 87.7114C125.536 88.215 126.031 88.4668 126.67 88.4668C127.605 88.4668 128.27 88.0542 128.663 87.229V84.0044C128.27 83.1115 127.609 82.665 126.683 82.665C126.044 82.665 125.546 82.9168 125.191 83.4204C124.835 83.9198 124.658 84.6582 124.658 85.6357ZM130.999 85.4644C130.999 84.8042 131.126 84.2096 131.38 83.6807C131.638 83.1517 132 82.7412 132.465 82.4492C132.935 82.153 133.466 82.0049 134.059 82.0049C134.973 82.0049 135.713 82.3265 136.28 82.9697C136.847 83.6087 137.131 84.4572 137.131 85.5151V85.6738C137.131 86.3382 137.002 86.937 136.744 87.4702C136.49 87.9992 136.13 88.4076 135.665 88.6953C135.199 88.9831 134.668 89.127 134.071 89.127C133.161 89.127 132.421 88.8075 131.85 88.1685C131.283 87.5252 130.999 86.6746 130.999 85.6167V85.4644ZM131.761 85.6738C131.761 86.4948 131.972 87.1698 132.396 87.6987C132.823 88.2235 133.382 88.4858 134.071 88.4858C134.757 88.4858 135.311 88.2235 135.734 87.6987C136.162 87.1698 136.375 86.4736 136.375 85.6104V85.4644C136.375 84.9396 136.278 84.4593 136.083 84.0234C135.889 83.5876 135.616 83.2511 135.265 83.0142C134.913 82.7729 134.511 82.6523 134.059 82.6523C133.382 82.6523 132.829 82.9189 132.402 83.4521C131.974 83.9811 131.761 84.6751 131.761 85.5342V85.6738ZM139.429 82.1318L139.454 83.3062C139.712 82.883 140.034 82.5614 140.419 82.3413C140.804 82.117 141.229 82.0049 141.695 82.0049C142.431 82.0049 142.979 82.2122 143.339 82.627C143.699 83.0417 143.881 83.6637 143.885 84.4932V89H143.129V84.4868C143.125 83.8732 142.994 83.4162 142.736 83.1157C142.482 82.8153 142.074 82.665 141.511 82.665C141.041 82.665 140.624 82.8132 140.26 83.1094C139.901 83.4014 139.634 83.797 139.46 84.2964V89H138.705V82.1318H139.429ZM145.199 82.0239L144.748 81.6938C145.129 81.1818 145.326 80.6444 145.338 80.0815V79.25H146.087V79.8911C146.087 80.7756 145.791 81.4865 145.199 82.0239ZM148.836 80.3735V82.1318H150.258V82.7539H148.836V87.3306C148.836 87.7114 148.904 87.995 149.039 88.1812C149.179 88.3674 149.409 88.4604 149.731 88.4604C149.858 88.4604 150.063 88.4393 150.347 88.397L150.378 89.019C150.18 89.091 149.909 89.127 149.566 89.127C149.045 89.127 148.667 88.9767 148.43 88.6763C148.193 88.3716 148.074 87.9251 148.074 87.3369V82.7539H146.811V82.1318H148.074V80.3735H148.836ZM159.106 87.2544C159.106 86.8778 158.954 86.5752 158.649 86.3467C158.349 86.1182 157.894 85.9404 157.285 85.8135C156.675 85.6823 156.201 85.5342 155.863 85.3691C155.528 85.1999 155.279 84.9946 155.114 84.7534C154.953 84.5122 154.873 84.2202 154.873 83.8774C154.873 83.3358 155.099 82.8893 155.552 82.5381C156.005 82.1826 156.584 82.0049 157.291 82.0049C158.057 82.0049 158.671 82.1953 159.132 82.5762C159.597 82.9528 159.83 83.4458 159.83 84.0552H159.068C159.068 83.6532 158.899 83.3188 158.561 83.0522C158.226 82.7856 157.803 82.6523 157.291 82.6523C156.792 82.6523 156.39 82.7645 156.085 82.9888C155.785 83.2088 155.634 83.4966 155.634 83.8521C155.634 84.1948 155.759 84.4614 156.009 84.6519C156.263 84.8381 156.722 85.0094 157.386 85.166C158.055 85.3226 158.554 85.4897 158.884 85.6675C159.219 85.8452 159.466 86.0589 159.627 86.3086C159.788 86.5583 159.868 86.8608 159.868 87.2163C159.868 87.7961 159.633 88.2594 159.164 88.6064C158.698 88.9535 158.089 89.127 157.335 89.127C156.536 89.127 155.886 88.9344 155.387 88.5493C154.892 88.16 154.644 87.6691 154.644 87.0767H155.406C155.435 87.521 155.622 87.868 155.964 88.1177C156.311 88.3631 156.768 88.4858 157.335 88.4858C157.864 88.4858 158.292 88.3695 158.618 88.1367C158.944 87.904 159.106 87.6099 159.106 87.2544ZM166 88.1304C165.543 88.7948 164.813 89.127 163.81 89.127C163.078 89.127 162.521 88.9154 162.141 88.4922C161.76 88.0648 161.565 87.4342 161.557 86.6006V82.1318H162.312V86.5054C162.312 87.813 162.841 88.4668 163.899 88.4668C164.999 88.4668 165.695 88.0119 165.987 87.1021V82.1318H166.749V89H166.013L166 88.1304ZM174.252 85.6357C174.252 86.7064 174.015 87.557 173.541 88.1875C173.067 88.8138 172.432 89.127 171.637 89.127C170.697 89.127 169.978 88.7969 169.479 88.1367V91.6406H168.723V82.1318H169.428L169.466 83.103C169.961 82.3709 170.678 82.0049 171.618 82.0049C172.439 82.0049 173.082 82.3159 173.547 82.938C174.017 83.5601 174.252 84.4233 174.252 85.5278V85.6357ZM173.49 85.5024C173.49 84.6265 173.31 83.9346 172.951 83.4268C172.591 82.9189 172.09 82.665 171.446 82.665C170.981 82.665 170.581 82.7772 170.247 83.0015C169.912 83.2257 169.656 83.5516 169.479 83.979V87.2734C169.66 87.667 169.921 87.9674 170.259 88.1748C170.598 88.3822 170.998 88.4858 171.459 88.4858C172.098 88.4858 172.595 88.2319 172.951 87.7241C173.31 87.2121 173.49 86.4715 173.49 85.5024ZM181.463 85.6357C181.463 86.7064 181.226 87.557 180.752 88.1875C180.278 88.8138 179.643 89.127 178.848 89.127C177.908 89.127 177.189 88.7969 176.689 88.1367V91.6406H175.934V82.1318H176.639L176.677 83.103C177.172 82.3709 177.889 82.0049 178.829 82.0049C179.65 82.0049 180.293 82.3159 180.758 82.938C181.228 83.5601 181.463 84.4233 181.463 85.5278V85.6357ZM180.701 85.5024C180.701 84.6265 180.521 83.9346 180.162 83.4268C179.802 82.9189 179.3 82.665 178.657 82.665C178.192 82.665 177.792 82.7772 177.458 83.0015C177.123 83.2257 176.867 83.5516 176.689 83.979V87.2734C176.871 87.667 177.132 87.9674 177.47 88.1748C177.809 88.3822 178.209 88.4858 178.67 88.4858C179.309 88.4858 179.806 88.2319 180.162 87.7241C180.521 87.2121 180.701 86.4715 180.701 85.5024ZM182.732 85.4644C182.732 84.8042 182.859 84.2096 183.113 83.6807C183.371 83.1517 183.733 82.7412 184.199 82.4492C184.668 82.153 185.2 82.0049 185.792 82.0049C186.706 82.0049 187.447 82.3265 188.014 82.9697C188.581 83.6087 188.864 84.4572 188.864 85.5151V85.6738C188.864 86.3382 188.735 86.937 188.477 87.4702C188.223 87.9992 187.863 88.4076 187.398 88.6953C186.932 88.9831 186.401 89.127 185.805 89.127C184.895 89.127 184.154 88.8075 183.583 88.1685C183.016 87.5252 182.732 86.6746 182.732 85.6167V85.4644ZM183.494 85.6738C183.494 86.4948 183.706 87.1698 184.129 87.6987C184.556 88.2235 185.115 88.4858 185.805 88.4858C186.49 88.4858 187.045 88.2235 187.468 87.6987C187.895 87.1698 188.109 86.4736 188.109 85.6104V85.4644C188.109 84.9396 188.012 84.4593 187.817 84.0234C187.622 83.5876 187.349 83.2511 186.998 83.0142C186.647 82.7729 186.245 82.6523 185.792 82.6523C185.115 82.6523 184.563 82.9189 184.135 83.4521C183.708 83.9811 183.494 84.6751 183.494 85.5342V85.6738ZM193.612 82.7793C193.451 82.7497 193.28 82.7349 193.098 82.7349C192.624 82.7349 192.222 82.8682 191.892 83.1348C191.566 83.3971 191.333 83.7801 191.194 84.2837V89H190.438V82.1318H191.181L191.194 83.2236C191.596 82.4111 192.241 82.0049 193.13 82.0049C193.341 82.0049 193.509 82.0324 193.631 82.0874L193.612 82.7793ZM196.316 80.3735V82.1318H197.738V82.7539H196.316V87.3306C196.316 87.7114 196.384 87.995 196.52 88.1812C196.659 88.3674 196.89 88.4604 197.211 88.4604C197.338 88.4604 197.544 88.4393 197.827 88.397L197.859 89.019C197.66 89.091 197.389 89.127 197.046 89.127C196.526 89.127 196.147 88.9767 195.91 88.6763C195.673 88.3716 195.555 87.9251 195.555 87.3369V82.7539H194.292V82.1318H195.555V80.3735H196.316ZM206.809 89C206.733 88.7842 206.684 88.4647 206.663 88.0415C206.396 88.3885 206.056 88.6572 205.641 88.8477C205.231 89.0339 204.795 89.127 204.333 89.127C203.673 89.127 203.138 88.9429 202.728 88.5747C202.321 88.2065 202.118 87.741 202.118 87.1782C202.118 86.5096 202.395 85.9806 202.95 85.5913C203.508 85.202 204.285 85.0073 205.279 85.0073H206.657V84.2266C206.657 83.7357 206.504 83.3506 206.2 83.0713C205.899 82.7878 205.459 82.646 204.879 82.646C204.35 82.646 203.912 82.7814 203.565 83.0522C203.218 83.3231 203.045 83.6489 203.045 84.0298L202.283 84.0234C202.283 83.4775 202.537 83.0057 203.045 82.6079C203.553 82.2059 204.177 82.0049 204.917 82.0049C205.683 82.0049 206.286 82.1974 206.727 82.5825C207.171 82.9634 207.399 83.4966 207.412 84.1821V87.4321C207.412 88.0965 207.482 88.5938 207.622 88.9238V89H206.809ZM204.422 88.4541C204.93 88.4541 205.383 88.3314 205.781 88.0859C206.183 87.8405 206.475 87.5125 206.657 87.1021V85.5913H205.298C204.541 85.5998 203.948 85.7394 203.521 86.0103C203.094 86.2769 202.88 86.645 202.88 87.1147C202.88 87.4998 203.022 87.8193 203.305 88.0732C203.593 88.3271 203.965 88.4541 204.422 88.4541ZM210.167 82.1318L210.192 83.3062C210.451 82.883 210.772 82.5614 211.157 82.3413C211.542 82.117 211.968 82.0049 212.433 82.0049C213.169 82.0049 213.717 82.2122 214.077 82.627C214.437 83.0417 214.619 83.6637 214.623 84.4932V89H213.868V84.4868C213.863 83.8732 213.732 83.4162 213.474 83.1157C213.22 82.8153 212.812 82.665 212.249 82.665C211.779 82.665 211.362 82.8132 210.999 83.1094C210.639 83.4014 210.372 83.797 210.199 84.2964V89H209.443V82.1318H210.167ZM218.768 87.9082L220.774 82.1318H221.593L218.66 90.168L218.508 90.5234C218.131 91.3571 217.549 91.7739 216.762 91.7739C216.58 91.7739 216.386 91.7443 216.178 91.6851L216.172 91.0566L216.565 91.0947C216.938 91.0947 217.238 91.0016 217.467 90.8154C217.7 90.6335 217.896 90.3182 218.057 89.8696L218.394 88.9429L215.804 82.1318H216.635L218.768 87.9082ZM225.516 85.4644C225.516 84.8042 225.643 84.2096 225.896 83.6807C226.155 83.1517 226.516 82.7412 226.982 82.4492C227.452 82.153 227.983 82.0049 228.575 82.0049C229.489 82.0049 230.23 82.3265 230.797 82.9697C231.364 83.6087 231.647 84.4572 231.647 85.5151V85.6738C231.647 86.3382 231.518 86.937 231.26 87.4702C231.006 87.9992 230.647 88.4076 230.181 88.6953C229.716 88.9831 229.185 89.127 228.588 89.127C227.678 89.127 226.938 88.8075 226.366 88.1685C225.799 87.5252 225.516 86.6746 225.516 85.6167V85.4644ZM226.277 85.6738C226.277 86.4948 226.489 87.1698 226.912 87.6987C227.34 88.2235 227.898 88.4858 228.588 88.4858C229.273 88.4858 229.828 88.2235 230.251 87.6987C230.678 87.1698 230.892 86.4736 230.892 85.6104V85.4644C230.892 84.9396 230.795 84.4593 230.6 84.0234C230.405 83.5876 230.132 83.2511 229.781 83.0142C229.43 82.7729 229.028 82.6523 228.575 82.6523C227.898 82.6523 227.346 82.9189 226.918 83.4521C226.491 83.9811 226.277 84.6751 226.277 85.5342V85.6738ZM233.945 82.1318L233.971 83.3062C234.229 82.883 234.55 82.5614 234.936 82.3413C235.321 82.117 235.746 82.0049 236.211 82.0049C236.948 82.0049 237.496 82.2122 237.855 82.627C238.215 83.0417 238.397 83.6637 238.401 84.4932V89H237.646V84.4868C237.642 83.8732 237.511 83.4162 237.252 83.1157C236.999 82.8153 236.59 82.665 236.027 82.665C235.558 82.665 235.141 82.8132 234.777 83.1094C234.417 83.4014 234.151 83.797 233.977 84.2964V89H233.222V82.1318H233.945ZM241.22 89H240.458V79.25H241.22V89ZM244.14 89H243.378V82.1318H244.14V89ZM243.245 80.145C243.245 80.0011 243.291 79.8805 243.384 79.7832C243.477 79.6816 243.604 79.6309 243.765 79.6309C243.926 79.6309 244.053 79.6816 244.146 79.7832C244.243 79.8805 244.292 80.0011 244.292 80.145C244.292 80.2889 244.243 80.4095 244.146 80.5068C244.053 80.6042 243.926 80.6528 243.765 80.6528C243.604 80.6528 243.477 80.6042 243.384 80.5068C243.291 80.4095 243.245 80.2889 243.245 80.145ZM246.933 82.1318L246.958 83.3062C247.216 82.883 247.538 82.5614 247.923 82.3413C248.308 82.117 248.733 82.0049 249.199 82.0049C249.935 82.0049 250.483 82.2122 250.843 82.627C251.202 83.0417 251.384 83.6637 251.389 84.4932V89H250.633V84.4868C250.629 83.8732 250.498 83.4162 250.24 83.1157C249.986 82.8153 249.577 82.665 249.015 82.665C248.545 82.665 248.128 82.8132 247.764 83.1094C247.404 83.4014 247.138 83.797 246.964 84.2964V89H246.209V82.1318H246.933ZM256.016 89.127C255.432 89.127 254.903 88.9831 254.429 88.6953C253.959 88.4076 253.593 88.0076 253.331 87.4956C253.069 86.9793 252.938 86.4017 252.938 85.7627V85.4897C252.938 84.8296 253.064 84.235 253.318 83.7061C253.576 83.1771 253.934 82.7624 254.391 82.4619C254.848 82.1572 255.343 82.0049 255.876 82.0049C256.71 82.0049 257.37 82.2905 257.857 82.8618C258.348 83.4289 258.593 84.2054 258.593 85.1914V85.6167H253.693V85.7627C253.693 86.5413 253.915 87.1909 254.359 87.7114C254.808 88.2277 255.371 88.4858 256.048 88.4858C256.454 88.4858 256.812 88.4118 257.121 88.2637C257.434 88.1156 257.717 87.8786 257.971 87.5527L258.447 87.9146C257.889 88.7228 257.078 89.127 256.016 89.127ZM255.876 82.6523C255.305 82.6523 254.823 82.8618 254.429 83.2808C254.04 83.6997 253.803 84.2625 253.718 84.9692H257.838V84.8867C257.817 84.2266 257.628 83.6891 257.273 83.2744C256.917 82.8597 256.452 82.6523 255.876 82.6523ZM268.756 85.6357C268.756 86.7064 268.519 87.557 268.045 88.1875C267.571 88.8138 266.936 89.127 266.141 89.127C265.201 89.127 264.482 88.7969 263.982 88.1367V91.6406H263.227V82.1318H263.932L263.97 83.103C264.465 82.3709 265.182 82.0049 266.122 82.0049C266.943 82.0049 267.586 82.3159 268.051 82.938C268.521 83.5601 268.756 84.4233 268.756 85.5278V85.6357ZM267.994 85.5024C267.994 84.6265 267.814 83.9346 267.455 83.4268C267.095 82.9189 266.593 82.665 265.95 82.665C265.485 82.665 265.085 82.7772 264.75 83.0015C264.416 83.2257 264.16 83.5516 263.982 83.979V87.2734C264.164 87.667 264.425 87.9674 264.763 88.1748C265.102 88.3822 265.502 88.4858 265.963 88.4858C266.602 88.4858 267.099 88.2319 267.455 87.7241C267.814 87.2121 267.994 86.4715 267.994 85.5024ZM274.78 89C274.704 88.7842 274.655 88.4647 274.634 88.0415C274.367 88.3885 274.027 88.6572 273.612 88.8477C273.201 89.0339 272.765 89.127 272.304 89.127C271.644 89.127 271.109 88.9429 270.698 88.5747C270.292 88.2065 270.089 87.741 270.089 87.1782C270.089 86.5096 270.366 85.9806 270.92 85.5913C271.479 85.202 272.256 85.0073 273.25 85.0073H274.627V84.2266C274.627 83.7357 274.475 83.3506 274.17 83.0713C273.87 82.7878 273.43 82.646 272.85 82.646C272.321 82.646 271.883 82.7814 271.536 83.0522C271.189 83.3231 271.016 83.6489 271.016 84.0298L270.254 84.0234C270.254 83.4775 270.508 83.0057 271.016 82.6079C271.523 82.2059 272.148 82.0049 272.888 82.0049C273.654 82.0049 274.257 82.1974 274.697 82.5825C275.142 82.9634 275.37 83.4966 275.383 84.1821V87.4321C275.383 88.0965 275.453 88.5938 275.592 88.9238V89H274.78ZM272.393 88.4541C272.901 88.4541 273.354 88.3314 273.751 88.0859C274.153 87.8405 274.445 87.5125 274.627 87.1021V85.5913H273.269C272.512 85.5998 271.919 85.7394 271.492 86.0103C271.064 86.2769 270.851 86.645 270.851 87.1147C270.851 87.4998 270.992 87.8193 271.276 88.0732C271.564 88.3271 271.936 88.4541 272.393 88.4541ZM279.49 87.9082L281.496 82.1318H282.314L279.382 90.168L279.229 90.5234C278.853 91.3571 278.271 91.7739 277.484 91.7739C277.302 91.7739 277.107 91.7443 276.9 91.6851L276.894 91.0566L277.287 91.0947C277.66 91.0947 277.96 91.0016 278.188 90.8154C278.421 90.6335 278.618 90.3182 278.779 89.8696L279.115 88.9429L276.525 82.1318H277.357L279.49 87.9082ZM284.187 82.1318L284.212 83.249C284.466 82.8343 284.784 82.5233 285.165 82.3159C285.545 82.1086 285.969 82.0049 286.434 82.0049C287.517 82.0049 288.205 82.4492 288.497 83.3379C288.743 82.9105 289.07 82.5825 289.481 82.354C289.891 82.1213 290.344 82.0049 290.839 82.0049C292.312 82.0049 293.063 82.8089 293.093 84.417V89H292.331V84.4741C292.327 83.8605 292.194 83.4056 291.931 83.1094C291.673 82.8132 291.25 82.665 290.662 82.665C290.116 82.6735 289.654 82.8512 289.278 83.1982C288.901 83.541 288.692 83.96 288.649 84.4551V89H287.888V84.417C287.883 83.8288 287.744 83.3908 287.469 83.103C287.198 82.811 286.779 82.665 286.212 82.665C285.734 82.665 285.323 82.8026 284.98 83.0776C284.638 83.3485 284.384 83.7526 284.219 84.29V89H283.457V82.1318H284.187ZM297.682 89.127C297.098 89.127 296.569 88.9831 296.095 88.6953C295.625 88.4076 295.259 88.0076 294.997 87.4956C294.735 86.9793 294.604 86.4017 294.604 85.7627V85.4897C294.604 84.8296 294.73 84.235 294.984 83.7061C295.243 83.1771 295.6 82.7624 296.057 82.4619C296.514 82.1572 297.009 82.0049 297.542 82.0049C298.376 82.0049 299.036 82.2905 299.523 82.8618C300.014 83.4289 300.259 84.2054 300.259 85.1914V85.6167H295.359V85.7627C295.359 86.5413 295.581 87.1909 296.025 87.7114C296.474 88.2277 297.037 88.4858 297.714 88.4858C298.12 88.4858 298.478 88.4118 298.787 88.2637C299.1 88.1156 299.383 87.8786 299.637 87.5527L300.113 87.9146C299.555 88.7228 298.744 89.127 297.682 89.127ZM297.542 82.6523C296.971 82.6523 296.489 82.8618 296.095 83.2808C295.706 83.6997 295.469 84.2625 295.384 84.9692H299.504V84.8867C299.483 84.2266 299.294 83.6891 298.939 83.2744C298.583 82.8597 298.118 82.6523 297.542 82.6523ZM302.462 82.1318L302.487 83.3062C302.745 82.883 303.067 82.5614 303.452 82.3413C303.837 82.117 304.263 82.0049 304.728 82.0049C305.464 82.0049 306.012 82.2122 306.372 82.627C306.732 83.0417 306.914 83.6637 306.918 84.4932V89H306.163V84.4868C306.158 83.8732 306.027 83.4162 305.769 83.1157C305.515 82.8153 305.107 82.665 304.544 82.665C304.074 82.665 303.657 82.8132 303.293 83.1094C302.934 83.4014 302.667 83.797 302.494 84.2964V89H301.738V82.1318H302.462ZM310.066 80.3735V82.1318H311.488V82.7539H310.066V87.3306C310.066 87.7114 310.134 87.995 310.27 88.1812C310.409 88.3674 310.64 88.4604 310.961 88.4604C311.088 88.4604 311.294 88.4393 311.577 88.397L311.609 89.019C311.41 89.091 311.139 89.127 310.796 89.127C310.276 89.127 309.897 88.9767 309.66 88.6763C309.423 88.3716 309.305 87.9251 309.305 87.3369V82.7539H308.042V82.1318H309.305V80.3735H310.066Z" fill="white"/>
<rect x="53" y="138" width="110" height="27" rx="13.5" fill="white"/>
<path d="M89.1191 153.34C89.0215 154.238 88.6992 154.926 88.1523 155.402C87.6094 155.879 86.8848 156.117 85.9785 156.117C85.3457 156.117 84.7852 155.959 84.2969 155.643C83.8125 155.326 83.4375 154.879 83.1719 154.301C82.9062 153.719 82.7715 153.055 82.7676 152.309V151.201C82.7676 150.443 82.9004 149.771 83.166 149.186C83.4316 148.6 83.8125 148.148 84.3086 147.832C84.8086 147.512 85.3828 147.352 86.0312 147.352C86.9453 147.352 87.666 147.6 88.1934 148.096C88.7246 148.588 89.0332 149.27 89.1191 150.141H88.3926C88.2129 148.691 87.4258 147.967 86.0312 147.967C85.2578 147.967 84.6406 148.256 84.1797 148.834C83.7227 149.412 83.4941 150.211 83.4941 151.23V152.273C83.4941 153.258 83.7168 154.043 84.1621 154.629C84.6113 155.215 85.2168 155.508 85.9785 155.508C86.7324 155.508 87.3008 155.328 87.6836 154.969C88.0664 154.605 88.3027 154.062 88.3926 153.34H89.1191ZM94.709 156C94.6387 155.801 94.5938 155.506 94.5742 155.115C94.3281 155.436 94.0137 155.684 93.6309 155.859C93.252 156.031 92.8496 156.117 92.4238 156.117C91.8145 156.117 91.3203 155.947 90.9414 155.607C90.5664 155.268 90.3789 154.838 90.3789 154.318C90.3789 153.701 90.6348 153.213 91.1465 152.854C91.6621 152.494 92.3789 152.314 93.2969 152.314H94.5684V151.594C94.5684 151.141 94.4277 150.785 94.1465 150.527C93.8691 150.266 93.4629 150.135 92.9277 150.135C92.4395 150.135 92.0352 150.26 91.7148 150.51C91.3945 150.76 91.2344 151.061 91.2344 151.412L90.5312 151.406C90.5312 150.902 90.7656 150.467 91.2344 150.1C91.7031 149.729 92.2793 149.543 92.9629 149.543C93.6699 149.543 94.2266 149.721 94.6328 150.076C95.043 150.428 95.2539 150.92 95.2656 151.553V154.553C95.2656 155.166 95.3301 155.625 95.459 155.93V156H94.709ZM92.5059 155.496C92.9746 155.496 93.3926 155.383 93.7598 155.156C94.1309 154.93 94.4004 154.627 94.5684 154.248V152.854H93.3145C92.6152 152.861 92.0684 152.99 91.6738 153.24C91.2793 153.486 91.082 153.826 91.082 154.26C91.082 154.615 91.2129 154.91 91.4746 155.145C91.7402 155.379 92.084 155.496 92.5059 155.496ZM97.9258 156H97.2227V147H97.9258V156ZM100.621 156H99.918V147H100.621V156ZM111.965 156H111.244L106.34 148.699V156H105.613V147.469H106.34L111.25 154.775V147.469H111.965V156ZM113.582 152.736C113.582 152.127 113.699 151.578 113.934 151.09C114.172 150.602 114.506 150.223 114.936 149.953C115.369 149.68 115.859 149.543 116.406 149.543C117.25 149.543 117.934 149.84 118.457 150.434C118.98 151.023 119.242 151.807 119.242 152.783V152.93C119.242 153.543 119.123 154.096 118.885 154.588C118.65 155.076 118.318 155.453 117.889 155.719C117.459 155.984 116.969 156.117 116.418 156.117C115.578 156.117 114.895 155.822 114.367 155.232C113.844 154.639 113.582 153.854 113.582 152.877V152.736ZM114.285 152.93C114.285 153.688 114.48 154.311 114.871 154.799C115.266 155.283 115.781 155.525 116.418 155.525C117.051 155.525 117.562 155.283 117.953 154.799C118.348 154.311 118.545 153.668 118.545 152.871V152.736C118.545 152.252 118.455 151.809 118.275 151.406C118.096 151.004 117.844 150.693 117.52 150.475C117.195 150.252 116.824 150.141 116.406 150.141C115.781 150.141 115.271 150.387 114.877 150.879C114.482 151.367 114.285 152.008 114.285 152.801V152.93ZM122.213 154.541L122.318 155.086L122.459 154.512L123.982 149.66H124.58L126.086 154.471L126.25 155.139L126.385 154.523L127.686 149.66H128.412L126.566 156H125.969L124.34 150.973L124.264 150.627L124.188 150.979L122.588 156H121.99L120.15 149.66H120.871L122.213 154.541Z" fill="#F9907C"/>
<line x1="173" y1="151.5" x2="208" y2="151.5" stroke="white"/>
<path d="M196 145L211 151.926L196 156" stroke="white"/>
<path d="M230.676 153.432C230.199 153.936 229.643 154.188 229.006 154.188C228.256 154.188 227.658 153.926 227.213 153.402C226.768 152.875 226.545 152.184 226.545 151.328C226.545 150.766 226.658 150.256 226.885 149.799C227.111 149.342 227.434 148.986 227.852 148.732C228.27 148.479 228.754 148.352 229.305 148.352C230.164 148.352 230.846 148.672 231.35 149.312C231.854 149.953 232.105 150.811 232.105 151.885V152.283C232.105 153.822 231.758 154.996 231.062 155.805C230.367 156.613 229.33 157.023 227.951 157.035H227.781V155.857H227.986C228.826 155.846 229.471 155.645 229.92 155.254C230.369 154.859 230.621 154.252 230.676 153.432ZM229.305 153.074C229.59 153.074 229.857 152.992 230.107 152.828C230.357 152.664 230.551 152.438 230.688 152.148V151.592C230.688 150.963 230.559 150.457 230.301 150.074C230.043 149.691 229.709 149.5 229.299 149.5C228.889 149.5 228.561 149.67 228.314 150.01C228.072 150.346 227.951 150.771 227.951 151.287C227.951 151.822 228.074 152.254 228.32 152.582C228.566 152.91 228.895 153.074 229.305 153.074ZM238.832 150.719C238.832 151.137 238.725 151.51 238.51 151.838C238.295 152.162 238.002 152.418 237.631 152.605C238.076 152.812 238.418 153.096 238.656 153.455C238.898 153.814 239.02 154.221 239.02 154.674C239.02 155.424 238.766 156.02 238.258 156.461C237.75 156.898 237.074 157.117 236.23 157.117C235.383 157.117 234.703 156.896 234.191 156.455C233.684 156.014 233.43 155.42 233.43 154.674C233.43 154.217 233.551 153.807 233.793 153.443C234.035 153.08 234.375 152.801 234.812 152.605C234.445 152.418 234.154 152.162 233.939 151.838C233.729 151.51 233.623 151.137 233.623 150.719C233.623 149.992 233.857 149.416 234.326 148.99C234.795 148.564 235.428 148.352 236.225 148.352C237.025 148.352 237.66 148.564 238.129 148.99C238.598 149.416 238.832 149.992 238.832 150.719ZM237.596 154.604C237.596 154.182 237.469 153.842 237.215 153.584C236.965 153.322 236.633 153.191 236.219 153.191C235.805 153.191 235.473 153.32 235.223 153.578C234.977 153.836 234.854 154.178 234.854 154.604C234.854 155.021 234.975 155.355 235.217 155.605C235.463 155.855 235.801 155.98 236.23 155.98C236.66 155.98 236.994 155.859 237.232 155.617C237.475 155.375 237.596 155.037 237.596 154.604ZM237.414 150.771C237.414 150.4 237.307 150.096 237.092 149.857C236.877 149.615 236.588 149.494 236.225 149.494C235.861 149.494 235.574 149.609 235.363 149.84C235.152 150.066 235.047 150.377 235.047 150.771C235.047 151.162 235.152 151.473 235.363 151.703C235.578 151.934 235.867 152.049 236.23 152.049C236.594 152.049 236.881 151.934 237.092 151.703C237.307 151.473 237.414 151.162 237.414 150.771ZM245.84 153.408C245.84 154.635 245.609 155.561 245.148 156.186C244.691 156.807 243.994 157.117 243.057 157.117C242.135 157.117 241.439 156.814 240.971 156.209C240.506 155.6 240.268 154.699 240.256 153.508V152.031C240.256 150.805 240.484 149.885 240.941 149.271C241.402 148.658 242.104 148.352 243.045 148.352C243.979 148.352 244.674 148.65 245.131 149.248C245.592 149.846 245.828 150.74 245.84 151.932V153.408ZM244.416 151.814C244.416 151.014 244.307 150.428 244.088 150.057C243.869 149.682 243.521 149.494 243.045 149.494C242.58 149.494 242.238 149.672 242.02 150.027C241.801 150.379 241.686 150.93 241.674 151.68V153.613C241.674 154.41 241.785 155.004 242.008 155.395C242.23 155.785 242.58 155.98 243.057 155.98C243.514 155.98 243.852 155.801 244.07 155.441C244.289 155.078 244.404 154.512 244.416 153.742V151.814ZM249.953 153.947H246.877V152.799H249.953V153.947ZM256.715 149.26L253.305 157H251.811L255.215 149.611H250.803V148.469H256.715V149.26ZM258.238 152.77L258.701 148.469H263.283V149.699H259.885L259.65 151.738C260.045 151.512 260.49 151.398 260.986 151.398C261.799 151.398 262.43 151.658 262.879 152.178C263.332 152.697 263.559 153.396 263.559 154.275C263.559 155.143 263.309 155.834 262.809 156.35C262.309 156.861 261.623 157.117 260.752 157.117C259.971 157.117 259.322 156.896 258.807 156.455C258.295 156.01 258.018 155.424 257.975 154.697H259.352C259.406 155.111 259.555 155.43 259.797 155.652C260.039 155.871 260.355 155.98 260.746 155.98C261.184 155.98 261.523 155.824 261.766 155.512C262.012 155.199 262.135 154.773 262.135 154.234C262.135 153.715 262 153.305 261.73 153.004C261.461 152.699 261.09 152.547 260.617 152.547C260.359 152.547 260.141 152.582 259.961 152.652C259.781 152.719 259.586 152.852 259.375 153.051L258.238 152.77ZM268.533 157H267.115V150.15L265.023 150.865V149.664L268.352 148.439H268.533V157ZM276.871 150.719C276.871 151.137 276.764 151.51 276.549 151.838C276.334 152.162 276.041 152.418 275.67 152.605C276.115 152.812 276.457 153.096 276.695 153.455C276.938 153.814 277.059 154.221 277.059 154.674C277.059 155.424 276.805 156.02 276.297 156.461C275.789 156.898 275.113 157.117 274.27 157.117C273.422 157.117 272.742 156.896 272.23 156.455C271.723 156.014 271.469 155.42 271.469 154.674C271.469 154.217 271.59 153.807 271.832 153.443C272.074 153.08 272.414 152.801 272.852 152.605C272.484 152.418 272.193 152.162 271.979 151.838C271.768 151.51 271.662 151.137 271.662 150.719C271.662 149.992 271.896 149.416 272.365 148.99C272.834 148.564 273.467 148.352 274.264 148.352C275.064 148.352 275.699 148.564 276.168 148.99C276.637 149.416 276.871 149.992 276.871 150.719ZM275.635 154.604C275.635 154.182 275.508 153.842 275.254 153.584C275.004 153.322 274.672 153.191 274.258 153.191C273.844 153.191 273.512 153.32 273.262 153.578C273.016 153.836 272.893 154.178 272.893 154.604C272.893 155.021 273.014 155.355 273.256 155.605C273.502 155.855 273.84 155.98 274.27 155.98C274.699 155.98 275.033 155.859 275.271 155.617C275.514 155.375 275.635 155.037 275.635 154.604ZM275.453 150.771C275.453 150.4 275.346 150.096 275.131 149.857C274.916 149.615 274.627 149.494 274.264 149.494C273.9 149.494 273.613 149.609 273.402 149.84C273.191 150.066 273.086 150.377 273.086 150.771C273.086 151.162 273.191 151.473 273.402 151.703C273.617 151.934 273.906 152.049 274.27 152.049C274.633 152.049 274.92 151.934 275.131 151.703C275.346 151.473 275.453 151.162 275.453 150.771ZM284.055 157H278.318V156.021L281.16 152.922C281.57 152.465 281.861 152.084 282.033 151.779C282.209 151.471 282.297 151.162 282.297 150.854C282.297 150.447 282.182 150.119 281.951 149.869C281.725 149.619 281.418 149.494 281.031 149.494C280.57 149.494 280.213 149.635 279.959 149.916C279.705 150.197 279.578 150.582 279.578 151.07H278.154C278.154 150.551 278.271 150.084 278.506 149.67C278.744 149.252 279.082 148.928 279.52 148.697C279.961 148.467 280.469 148.352 281.043 148.352C281.871 148.352 282.523 148.561 283 148.979C283.48 149.393 283.721 149.967 283.721 150.701C283.721 151.127 283.6 151.574 283.357 152.043C283.119 152.508 282.727 153.037 282.18 153.631L280.094 155.863H284.055V157ZM288.994 157H287.576V150.15L285.484 150.865V149.664L288.812 148.439H288.994V157ZM297.695 157H291.959V156.021L294.801 152.922C295.211 152.465 295.502 152.084 295.674 151.779C295.85 151.471 295.938 151.162 295.938 150.854C295.938 150.447 295.822 150.119 295.592 149.869C295.365 149.619 295.059 149.494 294.672 149.494C294.211 149.494 293.854 149.635 293.6 149.916C293.346 150.197 293.219 150.582 293.219 151.07H291.795C291.795 150.551 291.912 150.084 292.146 149.67C292.385 149.252 292.723 148.928 293.16 148.697C293.602 148.467 294.109 148.352 294.684 148.352C295.512 148.352 296.164 148.561 296.641 148.979C297.121 149.393 297.361 149.967 297.361 150.701C297.361 151.127 297.24 151.574 296.998 152.043C296.76 152.508 296.367 153.037 295.82 153.631L293.734 155.863H297.695V157Z" fill="white"/>
</svg>
